<mxfile host="65bd71144e">
    <diagram id="TrlYc15YRHSZpAd1SXqW" name="design">
        <mxGraphModel dx="2398" dy="234" grid="1" gridSize="10" guides="1" tooltips="1" connect="1" arrows="1" fold="1" page="1" pageScale="1" pageWidth="827" pageHeight="1169" math="0" shadow="0">
            <root>
                <mxCell id="0"/>
                <mxCell id="1" parent="0"/>
                <mxCell id="24" value="" style="rounded=1;whiteSpace=wrap;html=1;" vertex="1" parent="1">
                    <mxGeometry x="-10" width="680" height="370" as="geometry"/>
                </mxCell>
                <mxCell id="11" value="" style="edgeStyle=none;html=1;" edge="1" parent="1" source="2" target="4">
                    <mxGeometry relative="1" as="geometry"/>
                </mxCell>
                <mxCell id="20" value="" style="edgeStyle=none;html=1;entryX=0.396;entryY=1.046;entryDx=0;entryDy=0;entryPerimeter=0;" edge="1" parent="1" source="2" target="15">
                    <mxGeometry relative="1" as="geometry">
                        <mxPoint x="150" y="150" as="targetPoint"/>
                    </mxGeometry>
                </mxCell>
                <mxCell id="2" value="" style="rounded=1;whiteSpace=wrap;html=1;fontStyle=1" vertex="1" parent="1">
                    <mxGeometry x="90" y="250" width="120" height="100" as="geometry"/>
                </mxCell>
                <mxCell id="3" value="controllers" style="text;html=1;align=center;verticalAlign=middle;resizable=0;points=[];autosize=1;strokeColor=none;fillColor=none;" vertex="1" parent="1">
                    <mxGeometry x="115" y="270" width="70" height="20" as="geometry"/>
                </mxCell>
                <mxCell id="14" value="" style="edgeStyle=none;html=1;" edge="1" parent="1" source="4" target="5">
                    <mxGeometry relative="1" as="geometry"/>
                </mxCell>
                <mxCell id="21" value="" style="edgeStyle=none;html=1;" edge="1" parent="1" source="4" target="16">
                    <mxGeometry relative="1" as="geometry"/>
                </mxCell>
                <mxCell id="4" value="" style="rounded=1;whiteSpace=wrap;html=1;" vertex="1" parent="1">
                    <mxGeometry x="250" y="250" width="120" height="100" as="geometry"/>
                </mxCell>
                <mxCell id="22" value="" style="edgeStyle=none;html=1;" edge="1" parent="1" source="5" target="17">
                    <mxGeometry relative="1" as="geometry"/>
                </mxCell>
                <mxCell id="5" value="Repositoy" style="rounded=1;whiteSpace=wrap;html=1;" vertex="1" parent="1">
                    <mxGeometry x="410" y="245" width="120" height="110" as="geometry"/>
                </mxCell>
                <mxCell id="6" value="Domain" style="text;html=1;align=center;verticalAlign=middle;resizable=0;points=[];autosize=1;strokeColor=none;fillColor=none;" vertex="1" parent="1">
                    <mxGeometry x="280" y="280" width="60" height="20" as="geometry"/>
                </mxCell>
                <mxCell id="8" value="redis&amp;nbsp;" style="shape=cylinder3;whiteSpace=wrap;html=1;boundedLbl=1;backgroundOutline=1;size=15;" vertex="1" parent="1">
                    <mxGeometry x="550" y="60" width="60" height="80" as="geometry"/>
                </mxCell>
                <mxCell id="9" value="DB" style="text;html=1;strokeColor=none;fillColor=none;align=center;verticalAlign=middle;whiteSpace=wrap;rounded=0;" vertex="1" parent="1">
                    <mxGeometry x="500" y="50" width="60" height="30" as="geometry"/>
                </mxCell>
                <mxCell id="15" value="dtos&lt;span style=&quot;color: rgba(0 , 0 , 0 , 0) ; font-family: monospace ; font-size: 0px&quot;&gt;%3CmxGraphModel%3E%3Croot%3E%3CmxCell%20id%3D%220%22%2F%3E%3CmxCell%20id%3D%221%22%20parent%3D%220%22%2F%3E%3CmxCell%20id%3D%222%22%20value%3D%22%22%20style%3D%22rounded%3D1%3BwhiteSpace%3Dwrap%3Bhtml%3D1%3B%22%20vertex%3D%221%22%20parent%3D%221%22%3E%3CmxGeometry%20x%3D%22110%22%20y%3D%22120%22%20width%3D%22120%22%20height%3D%22230%22%20as%3D%22geometry%22%2F%3E%3C%2FmxCell%3E%3C%2Froot%3E%3C%2FmxGraphModel%3E&lt;/span&gt;" style="rounded=1;whiteSpace=wrap;html=1;" vertex="1" parent="1">
                    <mxGeometry x="105" y="80" width="120" height="60" as="geometry"/>
                </mxCell>
                <mxCell id="16" value="domain object&lt;span style=&quot;color: rgba(0 , 0 , 0 , 0) ; font-family: monospace ; font-size: 0px&quot;&gt;%3CmxGraphModel%3E%3Croot%3E%3CmxCell%20id%3D%220%22%2F%3E%3CmxCell%20id%3D%221%22%20parent%3D%220%22%2F%3E%3CmxCell%20id%3D%222%22%20value%3D%22dtos%26lt%3Bspan%20style%3D%26quot%3Bcolor%3A%20rgba(0%20%2C%200%20%2C%200%20%2C%200)%20%3B%20font-family%3A%20monospace%20%3B%20font-size%3A%200px%26quot%3B%26gt%3B%253CmxGraphModel%253E%253Croot%253E%253CmxCell%2520id%253D%25220%2522%252F%253E%253CmxCell%2520id%253D%25221%2522%2520parent%253D%25220%2522%252F%253E%253CmxCell%2520id%253D%25222%2522%2520value%253D%2522%2522%2520style%253D%2522rounded%253D1%253BwhiteSpace%253Dwrap%253Bhtml%253D1%253B%2522%2520vertex%253D%25221%2522%2520parent%253D%25221%2522%253E%253CmxGeometry%2520x%253D%2522110%2522%2520y%253D%2522120%2522%2520width%253D%2522120%2522%2520height%253D%2522230%2522%2520as%253D%2522geometry%2522%252F%253E%253C%252FmxCell%253E%253C%252Froot%253E%253C%252FmxGraphModel%253E%26lt%3B%2Fspan%26gt%3B%22%20style%3D%22rounded%3D1%3BwhiteSpace%3Dwrap%3Bhtml%3D1%3B%22%20vertex%3D%221%22%20parent%3D%221%22%3E%3CmxGeometry%20x%3D%22140%22%20y%3D%2280%22%20width%3D%22120%22%20height%3D%2260%22%20as%3D%22geometry%22%2F%3E%3C%2FmxCell%3E%3C%2Froot%3E%3C%2FmxGraphModel%3E e&lt;/span&gt;" style="rounded=1;whiteSpace=wrap;html=1;" vertex="1" parent="1">
                    <mxGeometry x="250" y="80" width="120" height="60" as="geometry"/>
                </mxCell>
                <mxCell id="17" value="entity" style="rounded=1;whiteSpace=wrap;html=1;" vertex="1" parent="1">
                    <mxGeometry x="400" y="80" width="120" height="60" as="geometry"/>
                </mxCell>
                <mxCell id="25" value="Task&amp;nbsp; tracker design" style="text;html=1;strokeColor=none;fillColor=none;align=center;verticalAlign=middle;whiteSpace=wrap;rounded=0;" vertex="1" parent="1">
                    <mxGeometry x="30" y="30" width="100" height="30" as="geometry"/>
                </mxCell>
                <mxCell id="Mpx4pyzf1SMT-lQrrRkz-25" value="Unit testing" style="whiteSpace=wrap;html=1;aspect=fixed;" vertex="1" parent="1">
                    <mxGeometry x="70" y="460" width="80" height="80" as="geometry"/>
                </mxCell>
                <mxCell id="Mpx4pyzf1SMT-lQrrRkz-26" value="Integration testing" style="whiteSpace=wrap;html=1;aspect=fixed;" vertex="1" parent="1">
                    <mxGeometry x="190" y="460" width="80" height="80" as="geometry"/>
                </mxCell>
                <mxCell id="Mpx4pyzf1SMT-lQrrRkz-27" value="Authentication" style="whiteSpace=wrap;html=1;aspect=fixed;" vertex="1" parent="1">
                    <mxGeometry x="310" y="460" width="80" height="80" as="geometry"/>
                </mxCell>
                <mxCell id="Mpx4pyzf1SMT-lQrrRkz-28" value="Logging" style="whiteSpace=wrap;html=1;aspect=fixed;" vertex="1" parent="1">
                    <mxGeometry x="430" y="460" width="80" height="80" as="geometry"/>
                </mxCell>
            </root>
        </mxGraphModel>
    </diagram>
    <diagram id="8jRMTJq8KeW_VsngsqsE" name="entity">
        <mxGraphModel dx="1571" dy="234" grid="1" gridSize="10" guides="1" tooltips="1" connect="1" arrows="1" fold="1" page="1" pageScale="1" pageWidth="827" pageHeight="1169" math="0" shadow="0">
            <root>
                <mxCell id="VqOtFbqvOP2RsL-4yXG8-0"/>
                <mxCell id="VqOtFbqvOP2RsL-4yXG8-1" parent="VqOtFbqvOP2RsL-4yXG8-0"/>
                <mxCell id="VqOtFbqvOP2RsL-4yXG8-2" value="Task" style="swimlane;fontStyle=1;align=center;verticalAlign=top;childLayout=stackLayout;horizontal=1;startSize=26;horizontalStack=0;resizeParent=1;resizeParentMax=0;resizeLast=0;collapsible=1;marginBottom=0;" vertex="1" parent="VqOtFbqvOP2RsL-4yXG8-1">
                    <mxGeometry x="100" y="50" width="250" height="170" as="geometry">
                        <mxRectangle x="130" y="60" width="100" height="26" as="alternateBounds"/>
                    </mxGeometry>
                </mxCell>
                <mxCell id="VqOtFbqvOP2RsL-4yXG8-3" value="+ id: long&#10;name:stirng&#10;description: string&#10;todo:List[todoItem]&#10;stastus:Status&#10;created at:datetime&#10;tartget&#10;" style="text;strokeColor=none;fillColor=none;align=left;verticalAlign=top;spacingLeft=4;spacingRight=4;overflow=hidden;rotatable=0;points=[[0,0.5],[1,0.5]];portConstraint=eastwest;" vertex="1" parent="VqOtFbqvOP2RsL-4yXG8-2">
                    <mxGeometry y="26" width="250" height="84" as="geometry"/>
                </mxCell>
                <mxCell id="VqOtFbqvOP2RsL-4yXG8-4" value="" style="line;strokeWidth=1;fillColor=none;align=left;verticalAlign=middle;spacingTop=-1;spacingLeft=3;spacingRight=3;rotatable=0;labelPosition=right;points=[];portConstraint=eastwest;" vertex="1" parent="VqOtFbqvOP2RsL-4yXG8-2">
                    <mxGeometry y="110" width="250" height="8" as="geometry"/>
                </mxCell>
                <mxCell id="VqOtFbqvOP2RsL-4yXG8-29" value="task pomodaro time :minutes : int" style="text;strokeColor=none;fillColor=none;align=left;verticalAlign=top;spacingLeft=4;spacingRight=4;overflow=hidden;rotatable=0;points=[[0,0.5],[1,0.5]];portConstraint=eastwest;" vertex="1" parent="VqOtFbqvOP2RsL-4yXG8-2">
                    <mxGeometry y="118" width="250" height="26" as="geometry"/>
                </mxCell>
                <mxCell id="VqOtFbqvOP2RsL-4yXG8-5" value="target completion date:datetime" style="text;strokeColor=none;fillColor=none;align=left;verticalAlign=top;spacingLeft=4;spacingRight=4;overflow=hidden;rotatable=0;points=[[0,0.5],[1,0.5]];portConstraint=eastwest;" vertex="1" parent="VqOtFbqvOP2RsL-4yXG8-2">
                    <mxGeometry y="144" width="250" height="26" as="geometry"/>
                </mxCell>
                <mxCell id="VqOtFbqvOP2RsL-4yXG8-10" value="todoitems" style="swimlane;fontStyle=1;align=center;verticalAlign=top;childLayout=stackLayout;horizontal=1;startSize=26;horizontalStack=0;resizeParent=1;resizeParentMax=0;resizeLast=0;collapsible=1;marginBottom=0;" vertex="1" parent="VqOtFbqvOP2RsL-4yXG8-1">
                    <mxGeometry x="420" y="60" width="160" height="138" as="geometry"/>
                </mxCell>
                <mxCell id="VqOtFbqvOP2RsL-4yXG8-11" value="+ id : string    " style="text;strokeColor=none;fillColor=none;align=left;verticalAlign=top;spacingLeft=4;spacingRight=4;overflow=hidden;rotatable=0;points=[[0,0.5],[1,0.5]];portConstraint=eastwest;" vertex="1" parent="VqOtFbqvOP2RsL-4yXG8-10">
                    <mxGeometry y="26" width="160" height="26" as="geometry"/>
                </mxCell>
                <mxCell id="VqOtFbqvOP2RsL-4yXG8-14" value="+ todo: string" style="text;strokeColor=none;fillColor=none;align=left;verticalAlign=top;spacingLeft=4;spacingRight=4;overflow=hidden;rotatable=0;points=[[0,0.5],[1,0.5]];portConstraint=eastwest;" vertex="1" parent="VqOtFbqvOP2RsL-4yXG8-10">
                    <mxGeometry y="52" width="160" height="26" as="geometry"/>
                </mxCell>
                <mxCell id="VqOtFbqvOP2RsL-4yXG8-15" value="+ iscompleeed: bool" style="text;strokeColor=none;fillColor=none;align=left;verticalAlign=top;spacingLeft=4;spacingRight=4;overflow=hidden;rotatable=0;points=[[0,0.5],[1,0.5]];portConstraint=eastwest;" vertex="1" parent="VqOtFbqvOP2RsL-4yXG8-10">
                    <mxGeometry y="78" width="160" height="26" as="geometry"/>
                </mxCell>
                <mxCell id="VqOtFbqvOP2RsL-4yXG8-12" value="" style="line;strokeWidth=1;fillColor=none;align=left;verticalAlign=middle;spacingTop=-1;spacingLeft=3;spacingRight=3;rotatable=0;labelPosition=right;points=[];portConstraint=eastwest;" vertex="1" parent="VqOtFbqvOP2RsL-4yXG8-10">
                    <mxGeometry y="104" width="160" height="8" as="geometry"/>
                </mxCell>
                <mxCell id="VqOtFbqvOP2RsL-4yXG8-13" value="+ method(type): type" style="text;strokeColor=none;fillColor=none;align=left;verticalAlign=top;spacingLeft=4;spacingRight=4;overflow=hidden;rotatable=0;points=[[0,0.5],[1,0.5]];portConstraint=eastwest;" vertex="1" parent="VqOtFbqvOP2RsL-4yXG8-10">
                    <mxGeometry y="112" width="160" height="26" as="geometry"/>
                </mxCell>
                <mxCell id="VqOtFbqvOP2RsL-4yXG8-20" value="ENUM Status" style="swimlane;fontStyle=0;childLayout=stackLayout;horizontal=1;startSize=26;fillColor=none;horizontalStack=0;resizeParent=1;resizeParentMax=0;resizeLast=0;collapsible=1;marginBottom=0;" vertex="1" parent="VqOtFbqvOP2RsL-4yXG8-1">
                    <mxGeometry x="120" y="240" width="140" height="130" as="geometry"/>
                </mxCell>
                <mxCell id="VqOtFbqvOP2RsL-4yXG8-22" value="todo" style="text;strokeColor=none;fillColor=none;align=left;verticalAlign=top;spacingLeft=4;spacingRight=4;overflow=hidden;rotatable=0;points=[[0,0.5],[1,0.5]];portConstraint=eastwest;" vertex="1" parent="VqOtFbqvOP2RsL-4yXG8-20">
                    <mxGeometry y="26" width="140" height="26" as="geometry"/>
                </mxCell>
                <mxCell id="VqOtFbqvOP2RsL-4yXG8-24" value="in progress" style="text;strokeColor=none;fillColor=none;align=left;verticalAlign=top;spacingLeft=4;spacingRight=4;overflow=hidden;rotatable=0;points=[[0,0.5],[1,0.5]];portConstraint=eastwest;" vertex="1" parent="VqOtFbqvOP2RsL-4yXG8-20">
                    <mxGeometry y="52" width="140" height="26" as="geometry"/>
                </mxCell>
                <mxCell id="VqOtFbqvOP2RsL-4yXG8-25" value="blocked" style="text;strokeColor=none;fillColor=none;align=left;verticalAlign=top;spacingLeft=4;spacingRight=4;overflow=hidden;rotatable=0;points=[[0,0.5],[1,0.5]];portConstraint=eastwest;" vertex="1" parent="VqOtFbqvOP2RsL-4yXG8-20">
                    <mxGeometry y="78" width="140" height="26" as="geometry"/>
                </mxCell>
                <mxCell id="VqOtFbqvOP2RsL-4yXG8-26" value="done" style="text;strokeColor=none;fillColor=none;align=left;verticalAlign=top;spacingLeft=4;spacingRight=4;overflow=hidden;rotatable=0;points=[[0,0.5],[1,0.5]];portConstraint=eastwest;" vertex="1" parent="VqOtFbqvOP2RsL-4yXG8-20">
                    <mxGeometry y="104" width="140" height="26" as="geometry"/>
                </mxCell>
            </root>
        </mxGraphModel>
    </diagram>
</mxfile>